<svg width="405" height="245" viewBox="0 0 405 245" fill="none" xmlns="http://www.w3.org/2000/svg">
<g filter="url(#filter0_f_1889_242)">
<ellipse cx="194" cy="126.5" rx="102" ry="79.5" fill="#FEE2C9"/>
</g>
<g clip-path="url(#clip0_1889_242)">
<path d="M195.668 44.5586C176.348 44.5586 160.755 59.6478 160.755 78.9893C160.755 98.3309 175.934 113.42 194.978 113.694C214.021 113.969 229.89 98.3309 229.89 79.2637C230.028 60.1965 214.711 44.6958 195.668 44.5586ZM212.779 53.8864C216.643 58.8247 220.231 63.2143 224.095 68.1526C218.437 70.3474 214.987 69.1128 212.365 65.8206C209.743 62.5284 209.881 58.8247 212.779 53.8864ZM213.193 74.1882C212.641 78.3035 211.951 83.3789 211.399 88.3172C207.949 91.0607 204.085 94.0785 200.083 97.0964C196.082 96.6848 191.114 95.999 186.422 95.4503C183.8 91.7466 180.902 87.9057 177.728 83.7904C178.28 79.4009 178.97 74.5998 179.522 69.9358C183.11 67.0552 186.974 63.9002 190.838 60.8823C195.116 61.431 199.807 62.1169 204.775 62.6656C207.121 66.095 210.019 70.073 213.193 74.1882ZM208.225 51.143C205.189 56.4928 202.015 58.1389 197.737 57.453C193.736 56.7671 191.252 54.4351 190.148 48.811C196.358 49.634 201.739 50.3199 208.225 51.143ZM184.49 50.5943C186.974 55.6697 185.732 58.9619 182.834 61.8426C179.66 64.8604 175.796 64.8604 170.276 61.2939C175.244 57.5902 179.66 54.1608 184.49 50.5943ZM168.206 66.7808C172.76 68.7013 174.692 71.8563 174.416 75.9715C174.14 80.4983 171.518 83.3789 166.136 84.4763C164.757 78.3035 165.722 72.8165 168.206 66.7808ZM178.694 103.544C173.45 100.114 169.862 95.7246 167.654 89.5518C172.484 88.0429 176.072 88.8659 178.694 92.2953C181.316 95.7246 181.178 99.2911 178.694 103.544ZM183.248 107.247C185.042 102.172 187.94 100.389 191.804 100.526C196.496 100.526 199.531 102.995 201.049 109.168C194.702 108.482 189.32 107.933 183.248 107.247ZM206.707 107.522C204.085 102.721 205.189 99.4283 207.811 96.5477C210.847 93.3926 214.711 93.2555 220.645 96.4105C215.677 100.251 211.399 103.681 206.707 107.522ZM216.367 81.7328C216.781 77.4804 219.679 74.7369 225.613 73.9139C224.785 79.9496 224.095 85.4365 223.405 91.335C217.747 89.4146 216.091 86.1224 216.367 81.7328Z" fill="#FF7700"/>
</g>
<mask id="path-3-outside-1_1889_242" maskUnits="userSpaceOnUse" x="108" y="136.562" width="181" height="34" fill="black">
<rect fill="white" x="108" y="136.562" width="181" height="34"/>
<path d="M114.283 143.133V151.422H127.667V156.128H114.283V168.562H109.188V138.383H129.307L129.264 143.133H114.283ZM139.519 161.698L136.497 168.562H131.057L144.354 138.383H149.794L163.092 168.562H157.652L154.63 161.698H139.519ZM152.558 156.992L147.074 144.557L141.591 156.992H152.558ZM191.38 148.184C191.38 153.164 189.207 156.301 184.86 157.596L192.761 168.562H186.285L179.075 158.416H172.383V168.562H167.288V138.383H178.514C183.119 138.383 186.415 139.161 188.401 140.715C190.387 142.269 191.38 144.759 191.38 148.184ZM178.73 153.797C181.608 153.797 183.565 153.351 184.601 152.458C185.637 151.566 186.156 150.141 186.156 148.184C186.156 146.198 185.623 144.845 184.558 144.126C183.493 143.377 181.593 143.003 178.859 143.003H172.383V153.797H178.73ZM203.794 143.133V151.422H217.178V156.128H203.794V168.562H198.699V138.383H218.819L218.776 143.133H203.794ZM246.257 145.507C244.213 143.377 241.695 142.312 238.701 142.312C235.708 142.312 233.175 143.377 231.103 145.507C229.059 147.637 228.037 150.228 228.037 153.279C228.037 156.301 229.059 158.877 231.103 161.007C233.175 163.137 235.708 164.202 238.701 164.202C241.695 164.202 244.213 163.137 246.257 161.007C248.329 158.877 249.366 156.301 249.366 153.279C249.366 150.228 248.329 147.637 246.257 145.507ZM250.013 164.418C246.962 167.382 243.192 168.865 238.701 168.865C234.211 168.865 230.441 167.382 227.39 164.418C224.339 161.424 222.813 157.711 222.813 153.279C222.813 148.817 224.339 145.104 227.39 142.14C230.441 139.146 234.211 137.649 238.701 137.649C243.192 137.649 246.962 139.146 250.013 142.14C253.064 145.104 254.59 148.817 254.59 153.279C254.59 157.711 253.064 161.424 250.013 164.418ZM285.108 148.184C285.108 153.164 282.934 156.301 278.588 157.596L286.489 168.562H280.013L272.803 158.416H266.111V168.562H261.016V138.383H272.241C276.847 138.383 280.142 139.161 282.128 140.715C284.115 142.269 285.108 144.759 285.108 148.184ZM272.457 153.797C275.336 153.797 277.293 153.351 278.329 152.458C279.365 151.566 279.883 150.141 279.883 148.184C279.883 146.198 279.351 144.845 278.286 144.126C277.221 143.377 275.321 143.003 272.587 143.003H266.111V153.797H272.457Z"/>
</mask>
<path d="M114.283 143.133V151.422H127.667V156.128H114.283V168.562H109.188V138.383H129.307L129.264 143.133H114.283ZM139.519 161.698L136.497 168.562H131.057L144.354 138.383H149.794L163.092 168.562H157.652L154.63 161.698H139.519ZM152.558 156.992L147.074 144.557L141.591 156.992H152.558ZM191.38 148.184C191.38 153.164 189.207 156.301 184.86 157.596L192.761 168.562H186.285L179.075 158.416H172.383V168.562H167.288V138.383H178.514C183.119 138.383 186.415 139.161 188.401 140.715C190.387 142.269 191.38 144.759 191.38 148.184ZM178.73 153.797C181.608 153.797 183.565 153.351 184.601 152.458C185.637 151.566 186.156 150.141 186.156 148.184C186.156 146.198 185.623 144.845 184.558 144.126C183.493 143.377 181.593 143.003 178.859 143.003H172.383V153.797H178.73ZM203.794 143.133V151.422H217.178V156.128H203.794V168.562H198.699V138.383H218.819L218.776 143.133H203.794ZM246.257 145.507C244.213 143.377 241.695 142.312 238.701 142.312C235.708 142.312 233.175 143.377 231.103 145.507C229.059 147.637 228.037 150.228 228.037 153.279C228.037 156.301 229.059 158.877 231.103 161.007C233.175 163.137 235.708 164.202 238.701 164.202C241.695 164.202 244.213 163.137 246.257 161.007C248.329 158.877 249.366 156.301 249.366 153.279C249.366 150.228 248.329 147.637 246.257 145.507ZM250.013 164.418C246.962 167.382 243.192 168.865 238.701 168.865C234.211 168.865 230.441 167.382 227.39 164.418C224.339 161.424 222.813 157.711 222.813 153.279C222.813 148.817 224.339 145.104 227.39 142.14C230.441 139.146 234.211 137.649 238.701 137.649C243.192 137.649 246.962 139.146 250.013 142.14C253.064 145.104 254.59 148.817 254.59 153.279C254.59 157.711 253.064 161.424 250.013 164.418ZM285.108 148.184C285.108 153.164 282.934 156.301 278.588 157.596L286.489 168.562H280.013L272.803 158.416H266.111V168.562H261.016V138.383H272.241C276.847 138.383 280.142 139.161 282.128 140.715C284.115 142.269 285.108 144.759 285.108 148.184ZM272.457 153.797C275.336 153.797 277.293 153.351 278.329 152.458C279.365 151.566 279.883 150.141 279.883 148.184C279.883 146.198 279.351 144.845 278.286 144.126C277.221 143.377 275.321 143.003 272.587 143.003H266.111V153.797H272.457Z" fill="#FF7700"/>
<path d="M114.283 143.133V142.133H113.283V143.133H114.283ZM114.283 151.422H113.283V152.422H114.283V151.422ZM127.667 151.422H128.667V150.422H127.667V151.422ZM127.667 156.128V157.128H128.667V156.128H127.667ZM114.283 156.128V155.128H113.283V156.128H114.283ZM114.283 168.562V169.562H115.283V168.562H114.283ZM109.188 168.562H108.188V169.562H109.188V168.562ZM109.188 138.383V137.383H108.188V138.383H109.188ZM129.307 138.383L130.307 138.392L130.316 137.383H129.307V138.383ZM129.264 143.133V144.133H130.255L130.264 143.142L129.264 143.133ZM113.283 143.133V151.422H115.283V143.133H113.283ZM114.283 152.422H127.667V150.422H114.283V152.422ZM126.667 151.422V156.128H128.667V151.422H126.667ZM127.667 155.128H114.283V157.128H127.667V155.128ZM113.283 156.128V168.562H115.283V156.128H113.283ZM114.283 167.562H109.188V169.562H114.283V167.562ZM110.188 168.562V138.383H108.188V168.562H110.188ZM109.188 139.383H129.307V137.383H109.188V139.383ZM128.307 138.374L128.264 143.124L130.264 143.142L130.307 138.392L128.307 138.374ZM129.264 142.133H114.283V144.133H129.264V142.133ZM139.519 161.698V160.698H138.866L138.604 161.295L139.519 161.698ZM136.497 168.562V169.562H137.149L137.412 168.965L136.497 168.562ZM131.057 168.562L130.141 168.159L129.523 169.562H131.057V168.562ZM144.354 138.383V137.383H143.702L143.439 137.98L144.354 138.383ZM149.794 138.383L150.709 137.98L150.447 137.383H149.794V138.383ZM163.092 168.562V169.562H164.626L164.007 168.159L163.092 168.562ZM157.652 168.562L156.737 168.965L157 169.562H157.652V168.562ZM154.63 161.698L155.545 161.295L155.282 160.698H154.63V161.698ZM152.558 156.992V157.992H154.091L153.473 156.588L152.558 156.992ZM147.074 144.557L147.989 144.154L147.074 142.079L146.159 144.154L147.074 144.557ZM141.591 156.992L140.676 156.588L140.057 157.992H141.591V156.992ZM138.604 161.295L135.581 168.16L137.412 168.965L140.434 162.101L138.604 161.295ZM136.497 167.562H131.057V169.562H136.497V167.562ZM131.972 168.966L145.269 138.787L143.439 137.98L130.141 168.159L131.972 168.966ZM144.354 139.383H149.794V137.383H144.354V139.383ZM148.879 138.787L162.177 168.966L164.007 168.159L150.709 137.98L148.879 138.787ZM163.092 167.562H157.652V169.562H163.092V167.562ZM158.567 168.16L155.545 161.295L153.715 162.101L156.737 168.965L158.567 168.16ZM154.63 160.698H139.519V162.698H154.63V160.698ZM153.473 156.588L147.989 144.154L146.159 144.961L151.643 157.395L153.473 156.588ZM146.159 144.154L140.676 156.588L142.506 157.395L147.989 144.961L146.159 144.154ZM141.591 157.992H152.558V155.992H141.591V157.992ZM184.86 157.596L184.575 156.638L183.227 157.039L184.049 158.181L184.86 157.596ZM192.761 168.562V169.562H194.714L193.573 167.978L192.761 168.562ZM186.285 168.562L185.47 169.142L185.769 169.562H186.285V168.562ZM179.075 158.416L179.89 157.837L179.591 157.416H179.075V158.416ZM172.383 158.416V157.416H171.383V158.416H172.383ZM172.383 168.562V169.562H173.383V168.562H172.383ZM167.288 168.562H166.288V169.562H167.288V168.562ZM167.288 138.383V137.383H166.288V138.383H167.288ZM184.601 152.458L183.949 151.701L184.601 152.458ZM184.558 144.126L183.983 144.944L183.991 144.949L183.998 144.954L184.558 144.126ZM172.383 143.003V142.003H171.383V143.003H172.383ZM172.383 153.797H171.383V154.797H172.383V153.797ZM190.38 148.184C190.38 150.532 189.868 152.345 188.928 153.702C187.994 155.051 186.573 156.042 184.575 156.638L185.146 158.554C187.494 157.855 189.333 156.63 190.572 154.841C191.805 153.061 192.38 150.816 192.38 148.184H190.38ZM184.049 158.181L191.95 169.147L193.573 167.978L185.672 157.012L184.049 158.181ZM192.761 167.562H186.285V169.562H192.761V167.562ZM187.1 167.983L179.89 157.837L178.26 158.996L185.47 169.142L187.1 167.983ZM179.075 157.416H172.383V159.416H179.075V157.416ZM171.383 158.416V168.562H173.383V158.416H171.383ZM172.383 167.562H167.288V169.562H172.383V167.562ZM168.288 168.562V138.383H166.288V168.562H168.288ZM167.288 139.383H178.514V137.383H167.288V139.383ZM178.514 139.383C183.058 139.383 186.069 140.16 187.784 141.502L189.017 139.927C186.76 138.161 183.18 137.383 178.514 137.383V139.383ZM187.784 141.502C189.449 142.805 190.38 144.949 190.38 148.184H192.38C192.38 144.569 191.325 141.734 189.017 139.927L187.784 141.502ZM178.73 154.797C180.214 154.797 181.503 154.682 182.578 154.437C183.647 154.194 184.568 153.807 185.254 153.216L183.949 151.701C183.599 152.002 183.023 152.285 182.134 152.487C181.252 152.688 180.123 152.797 178.73 152.797V154.797ZM185.254 153.216C186.593 152.063 187.156 150.303 187.156 148.184H185.156C185.156 149.98 184.682 151.069 183.949 151.701L185.254 153.216ZM187.156 148.184C187.156 146.055 186.584 144.288 185.118 143.297L183.998 144.954C184.662 145.402 185.156 146.341 185.156 148.184H187.156ZM185.133 143.307C183.795 142.367 181.616 142.003 178.859 142.003V144.003C181.571 144.003 183.192 144.388 183.983 144.944L185.133 143.307ZM178.859 142.003H172.383V144.003H178.859V142.003ZM171.383 143.003V153.797H173.383V143.003H171.383ZM172.383 154.797H178.73V152.797H172.383V154.797ZM203.794 143.133V142.133H202.794V143.133H203.794ZM203.794 151.422H202.794V152.422H203.794V151.422ZM217.178 151.422H218.178V150.422H217.178V151.422ZM217.178 156.128V157.128H218.178V156.128H217.178ZM203.794 156.128V155.128H202.794V156.128H203.794ZM203.794 168.562V169.562H204.794V168.562H203.794ZM198.699 168.562H197.699V169.562H198.699V168.562ZM198.699 138.383V137.383H197.699V138.383H198.699ZM218.819 138.383L219.819 138.392L219.828 137.383H218.819V138.383ZM218.776 143.133V144.133H219.767L219.776 143.142L218.776 143.133ZM202.794 143.133V151.422H204.794V143.133H202.794ZM203.794 152.422H217.178V150.422H203.794V152.422ZM216.178 151.422V156.128H218.178V151.422H216.178ZM217.178 155.128H203.794V157.128H217.178V155.128ZM202.794 156.128V168.562H204.794V156.128H202.794ZM203.794 167.562H198.699V169.562H203.794V167.562ZM199.699 168.562V138.383H197.699V168.562H199.699ZM198.699 139.383H218.819V137.383H198.699V139.383ZM217.819 138.374L217.776 143.124L219.776 143.142L219.819 138.392L217.819 138.374ZM218.776 142.133H203.794V144.133H218.776V142.133ZM246.257 145.507L245.535 146.2L245.54 146.205L246.257 145.507ZM231.103 145.507L230.386 144.81L230.381 144.815L231.103 145.507ZM231.103 161.007L230.381 161.699L230.386 161.704L231.103 161.007ZM246.257 161.007L245.54 160.31L245.535 160.315L246.257 161.007ZM250.013 164.418L250.71 165.135L250.714 165.132L250.013 164.418ZM227.39 164.418L226.689 165.132L226.693 165.135L227.39 164.418ZM227.39 142.14L228.087 142.857L228.09 142.853L227.39 142.14ZM250.013 142.14L249.313 142.853L249.316 142.857L250.013 142.14ZM246.979 144.815C244.743 142.485 241.963 141.312 238.701 141.312V143.312C241.427 143.312 243.683 144.269 245.535 146.2L246.979 144.815ZM238.701 141.312C235.44 141.312 232.648 142.485 230.386 144.81L231.819 146.205C233.702 144.27 235.976 143.312 238.701 143.312V141.312ZM230.381 144.815C228.152 147.138 227.037 149.979 227.037 153.279H229.037C229.037 150.476 229.966 148.136 231.824 146.2L230.381 144.815ZM227.037 153.279C227.037 156.552 228.154 159.378 230.381 161.699L231.824 160.315C229.964 158.376 229.037 156.05 229.037 153.279H227.037ZM230.386 161.704C232.648 164.029 235.44 165.202 238.701 165.202V163.202C235.976 163.202 233.702 162.244 231.819 160.31L230.386 161.704ZM238.701 165.202C241.963 165.202 244.743 164.029 246.979 161.699L245.535 160.315C243.683 162.245 241.427 163.202 238.701 163.202V165.202ZM246.974 161.704C249.231 159.384 250.366 156.556 250.366 153.279H248.366C248.366 156.045 247.428 158.37 245.54 160.31L246.974 161.704ZM250.366 153.279C250.366 149.975 249.233 147.132 246.974 144.81L245.54 146.205C247.426 148.142 248.366 150.48 248.366 153.279H250.366ZM249.316 163.701C246.463 166.473 242.947 167.865 238.701 167.865V169.865C243.436 169.865 247.461 168.292 250.71 165.135L249.316 163.701ZM238.701 167.865C234.456 167.865 230.94 166.473 228.087 163.701L226.693 165.135C229.942 168.292 233.967 169.865 238.701 169.865V167.865ZM228.09 163.704C225.239 160.906 223.813 157.454 223.813 153.279H221.813C221.813 157.969 223.439 161.942 226.689 165.132L228.09 163.704ZM223.813 153.279C223.813 149.073 225.24 145.623 228.087 142.857L226.693 141.422C223.438 144.585 221.813 148.562 221.813 153.279H223.813ZM228.09 142.853C230.944 140.053 234.459 138.649 238.701 138.649V136.649C233.964 136.649 229.938 138.239 226.689 141.426L228.09 142.853ZM238.701 138.649C242.944 138.649 246.459 140.053 249.313 142.853L250.714 141.426C247.465 138.239 243.439 136.649 238.701 136.649V138.649ZM249.316 142.857C252.163 145.623 253.59 149.073 253.59 153.279H255.59C255.59 148.562 253.965 144.585 250.71 141.422L249.316 142.857ZM253.59 153.279C253.59 157.454 252.164 160.906 249.313 163.704L250.714 165.132C253.964 161.942 255.59 157.969 255.59 153.279H253.59ZM278.588 157.596L278.303 156.638L276.955 157.039L277.777 158.181L278.588 157.596ZM286.489 168.562V169.562H288.442L287.3 167.978L286.489 168.562ZM280.013 168.562L279.198 169.142L279.497 169.562H280.013V168.562ZM272.803 158.416L273.618 157.837L273.319 157.416H272.803V158.416ZM266.111 158.416V157.416H265.111V158.416H266.111ZM266.111 168.562V169.562H267.111V168.562H266.111ZM261.016 168.562H260.016V169.562H261.016V168.562ZM261.016 138.383V137.383H260.016V138.383H261.016ZM278.329 152.458L277.677 151.701L278.329 152.458ZM278.286 144.126L277.711 144.944L277.718 144.949L277.726 144.954L278.286 144.126ZM266.111 143.003V142.003H265.111V143.003H266.111ZM266.111 153.797H265.111V154.797H266.111V153.797ZM284.108 148.184C284.108 150.532 283.596 152.345 282.656 153.702C281.722 155.051 280.301 156.042 278.303 156.638L278.874 158.554C281.222 157.855 283.06 156.63 284.3 154.841C285.533 153.061 286.108 150.816 286.108 148.184H284.108ZM277.777 158.181L285.678 169.147L287.3 167.978L279.399 157.012L277.777 158.181ZM286.489 167.562H280.013V169.562H286.489V167.562ZM280.828 167.983L273.618 157.837L271.988 158.996L279.198 169.142L280.828 167.983ZM272.803 157.416H266.111V159.416H272.803V157.416ZM265.111 158.416V168.562H267.111V158.416H265.111ZM266.111 167.562H261.016V169.562H266.111V167.562ZM262.016 168.562V138.383H260.016V168.562H262.016ZM261.016 139.383H272.241V137.383H261.016V139.383ZM272.241 139.383C276.785 139.383 279.797 140.16 281.512 141.502L282.745 139.927C280.488 138.161 276.908 137.383 272.241 137.383V139.383ZM281.512 141.502C283.176 142.805 284.108 144.949 284.108 148.184H286.108C286.108 144.569 285.053 141.734 282.745 139.927L281.512 141.502ZM272.457 154.797C273.942 154.797 275.231 154.682 276.306 154.437C277.375 154.194 278.296 153.807 278.982 153.216L277.677 151.701C277.326 152.002 276.75 152.285 275.862 152.487C274.98 152.688 273.851 152.797 272.457 152.797V154.797ZM278.982 153.216C280.321 152.063 280.883 150.303 280.883 148.184H278.883C278.883 149.98 278.41 151.069 277.677 151.701L278.982 153.216ZM280.883 148.184C280.883 146.055 280.312 144.288 278.846 143.297L277.726 144.954C278.389 145.402 278.883 146.341 278.883 148.184H280.883ZM278.861 143.307C277.522 142.367 275.343 142.003 272.587 142.003V144.003C275.299 144.003 276.919 144.388 277.711 144.944L278.861 143.307ZM272.587 142.003H266.111V144.003H272.587V142.003ZM265.111 143.003V153.797H267.111V143.003H265.111ZM266.111 154.797H272.457V152.797H266.111V154.797Z" fill="#FF7700" mask="url(#path-3-outside-1_1889_242)"/>
<path d="M105.323 198.117V194.619H105.947C106.16 194.441 106.359 194.187 106.543 193.857C106.728 193.527 106.885 193.082 107.015 192.522C107.144 191.961 107.233 191.242 107.283 190.364L107.504 186.367H113.34V194.619H114.412V198.103H113.045V195.83H106.691V198.117H105.323ZM107.629 194.619H111.973V187.596H108.798L108.65 190.364C108.61 191.032 108.544 191.633 108.452 192.166C108.362 192.699 108.247 193.17 108.105 193.58C107.967 193.986 107.808 194.333 107.629 194.619ZM124.197 191.098C124.197 192.109 124.012 192.978 123.642 193.705C123.273 194.428 122.766 194.986 122.122 195.377C121.481 195.765 120.753 195.959 119.937 195.959C119.117 195.959 118.386 195.765 117.742 195.377C117.101 194.986 116.596 194.427 116.226 193.7C115.856 192.973 115.672 192.106 115.672 191.098C115.672 190.088 115.856 189.221 116.226 188.497C116.596 187.77 117.101 187.212 117.742 186.824C118.386 186.433 119.117 186.237 119.937 186.237C120.753 186.237 121.481 186.433 122.122 186.824C122.766 187.212 123.273 187.77 123.642 188.497C124.012 189.221 124.197 190.088 124.197 191.098ZM122.783 191.098C122.783 190.328 122.658 189.68 122.409 189.153C122.162 188.623 121.823 188.223 121.392 187.952C120.964 187.678 120.479 187.54 119.937 187.54C119.391 187.54 118.905 187.678 118.476 187.952C118.048 188.223 117.709 188.623 117.46 189.153C117.213 189.68 117.09 190.328 117.09 191.098C117.09 191.869 117.213 192.519 117.46 193.048C117.709 193.575 118.048 193.976 118.476 194.25C118.905 194.521 119.391 194.656 119.937 194.656C120.479 194.656 120.964 194.521 121.392 194.25C121.823 193.976 122.162 193.575 122.409 193.048C122.658 192.519 122.783 191.869 122.783 191.098ZM133.837 189.444H132.395C132.34 189.136 132.237 188.865 132.086 188.631C131.935 188.397 131.75 188.198 131.531 188.035C131.313 187.872 131.068 187.748 130.797 187.665C130.529 187.582 130.244 187.54 129.942 187.54C129.396 187.54 128.908 187.678 128.477 187.952C128.049 188.226 127.71 188.628 127.46 189.158C127.214 189.688 127.091 190.334 127.091 191.098C127.091 191.869 127.214 192.519 127.46 193.048C127.71 193.578 128.05 193.979 128.482 194.25C128.913 194.521 129.398 194.656 129.937 194.656C130.236 194.656 130.519 194.616 130.787 194.536C131.058 194.453 131.303 194.331 131.522 194.171C131.741 194.011 131.926 193.815 132.076 193.584C132.23 193.35 132.337 193.082 132.395 192.78L133.837 192.785C133.76 193.25 133.611 193.678 133.389 194.07C133.17 194.458 132.888 194.793 132.543 195.077C132.201 195.357 131.81 195.574 131.369 195.728C130.929 195.882 130.448 195.959 129.928 195.959C129.108 195.959 128.378 195.765 127.738 195.377C127.097 194.986 126.592 194.427 126.222 193.7C125.855 192.973 125.672 192.106 125.672 191.098C125.672 190.088 125.857 189.221 126.227 188.497C126.596 187.77 127.101 187.212 127.742 186.824C128.383 186.433 129.111 186.237 129.928 186.237C130.43 186.237 130.898 186.31 131.333 186.455C131.77 186.596 132.163 186.806 132.511 187.083C132.859 187.357 133.147 187.693 133.375 188.09C133.603 188.485 133.757 188.936 133.837 189.444ZM135.079 187.596V186.367H142.403V187.596H139.45V195.83H138.027V187.596H135.079ZM143.702 195.83H142.187L145.592 186.367H147.242L150.647 195.83H149.132L146.456 188.086H146.382L143.702 195.83ZM143.956 192.124H148.873V193.326H143.956V192.124ZM152.014 195.83V186.367H155.479C156.151 186.367 156.707 186.478 157.148 186.699C157.588 186.918 157.918 187.215 158.136 187.591C158.355 187.964 158.464 188.384 158.464 188.853C158.464 189.247 158.392 189.58 158.247 189.851C158.102 190.119 157.908 190.334 157.665 190.498C157.425 190.658 157.16 190.775 156.87 190.849V190.941C157.185 190.957 157.491 191.058 157.79 191.246C158.092 191.431 158.341 191.695 158.538 192.036C158.736 192.378 158.834 192.794 158.834 193.284C158.834 193.768 158.72 194.202 158.492 194.587C158.267 194.969 157.919 195.273 157.448 195.497C156.977 195.719 156.374 195.83 155.641 195.83H152.014ZM153.442 194.606H155.503C156.186 194.606 156.676 194.473 156.972 194.208C157.268 193.943 157.416 193.612 157.416 193.215C157.416 192.916 157.34 192.642 157.189 192.392C157.038 192.143 156.823 191.944 156.542 191.796C156.265 191.648 155.935 191.574 155.553 191.574H153.442V194.606ZM153.442 190.461H155.355C155.675 190.461 155.963 190.399 156.219 190.276C156.478 190.153 156.682 189.98 156.833 189.758C156.987 189.534 157.064 189.269 157.064 188.964C157.064 188.572 156.927 188.244 156.653 187.979C156.379 187.714 155.958 187.582 155.392 187.582H153.442V190.461ZM159.811 195.83V194.592L160.089 194.582C160.464 194.573 160.76 194.445 160.976 194.199C161.195 193.953 161.353 193.555 161.452 193.007C161.553 192.458 161.621 191.727 161.655 190.812L161.817 186.367H167.801V195.83H166.391V187.577H163.161L163.014 191.191C162.974 192.204 162.872 193.056 162.709 193.746C162.545 194.433 162.268 194.952 161.877 195.303C161.489 195.654 160.936 195.83 160.218 195.83H159.811ZM176.589 195.83H175.157V187.591H173.364C172.896 187.591 172.515 187.662 172.223 187.804C171.93 187.942 171.716 188.143 171.58 188.405C171.445 188.666 171.377 188.976 171.377 189.333C171.377 189.688 171.445 189.991 171.58 190.244C171.716 190.496 171.929 190.689 172.218 190.821C172.508 190.954 172.885 191.02 173.35 191.02H175.776V192.249H173.216C172.486 192.249 171.878 192.127 171.391 191.884C170.907 191.641 170.544 191.3 170.301 190.863C170.06 190.422 169.94 189.912 169.94 189.333C169.94 188.751 170.06 188.238 170.301 187.795C170.541 187.348 170.903 186.998 171.386 186.746C171.873 186.493 172.482 186.367 173.212 186.367H176.589V195.83ZM171.918 191.56H173.498L171.202 195.83H169.58L171.918 191.56ZM178.673 195.83V186.367H184.606V187.596H180.101V190.479H184.297V191.704H180.101V194.601H184.662V195.83H178.673ZM186.514 186.367H188.246L191.259 193.723H191.37L194.383 186.367H196.116V195.83H194.757V188.982H194.669L191.878 195.816H190.751L187.96 188.977H187.872V195.83H186.514V186.367ZM202.305 195.959V194.703H202.873C203.111 194.703 203.306 194.663 203.46 194.582C203.617 194.502 203.745 194.395 203.844 194.259C203.945 194.12 204.03 193.969 204.098 193.806L204.232 193.469L200.905 186.367H202.421L204.902 191.838L207.111 186.367H208.608L205.336 194.19C205.198 194.504 205.037 194.795 204.856 195.063C204.677 195.331 204.438 195.548 204.139 195.715C203.841 195.878 203.445 195.959 202.952 195.959H202.305ZM209.242 198.117V194.619H209.866C210.078 194.441 210.277 194.187 210.462 193.857C210.647 193.527 210.804 193.082 210.933 192.522C211.063 191.961 211.152 191.242 211.201 190.364L211.423 186.367H217.259V194.619H218.331V198.103H216.963V195.83H210.61V198.117H209.242ZM211.548 194.619H215.891V187.596H212.717L212.569 190.364C212.529 191.032 212.463 191.633 212.37 192.166C212.281 192.699 212.165 193.17 212.024 193.58C211.885 193.986 211.726 194.333 211.548 194.619ZM228.115 191.098C228.115 192.109 227.931 192.978 227.561 193.705C227.191 194.428 226.685 194.986 226.041 195.377C225.4 195.765 224.671 195.959 223.855 195.959C223.036 195.959 222.304 195.765 221.66 195.377C221.019 194.986 220.514 194.427 220.145 193.7C219.775 192.973 219.59 192.106 219.59 191.098C219.59 190.088 219.775 189.221 220.145 188.497C220.514 187.77 221.019 187.212 221.66 186.824C222.304 186.433 223.036 186.237 223.855 186.237C224.671 186.237 225.4 186.433 226.041 186.824C226.685 187.212 227.191 187.77 227.561 188.497C227.931 189.221 228.115 190.088 228.115 191.098ZM226.701 191.098C226.701 190.328 226.577 189.68 226.327 189.153C226.081 188.623 225.742 188.223 225.311 187.952C224.882 187.678 224.397 187.54 223.855 187.54C223.31 187.54 222.823 187.678 222.395 187.952C221.967 188.223 221.628 188.623 221.378 189.153C221.132 189.68 221.009 190.328 221.009 191.098C221.009 191.869 221.132 192.519 221.378 193.048C221.628 193.575 221.967 193.976 222.395 194.25C222.823 194.521 223.31 194.656 223.855 194.656C224.397 194.656 224.882 194.521 225.311 194.25C225.742 193.976 226.081 193.575 226.327 193.048C226.577 192.519 226.701 191.869 226.701 191.098ZM229.896 195.83V186.367H233.361C234.033 186.367 234.589 186.478 235.029 186.699C235.47 186.918 235.799 187.215 236.018 187.591C236.237 187.964 236.346 188.384 236.346 188.853C236.346 189.247 236.274 189.58 236.129 189.851C235.984 190.119 235.79 190.334 235.547 190.498C235.306 190.658 235.042 190.775 234.752 190.849V190.941C235.066 190.957 235.373 191.058 235.672 191.246C235.973 191.431 236.223 191.695 236.42 192.036C236.617 192.378 236.716 192.794 236.716 193.284C236.716 193.768 236.602 194.202 236.374 194.587C236.149 194.969 235.801 195.273 235.33 195.497C234.858 195.719 234.256 195.83 233.523 195.83H229.896ZM231.323 194.606H233.384C234.068 194.606 234.558 194.473 234.854 194.208C235.149 193.943 235.297 193.612 235.297 193.215C235.297 192.916 235.222 192.642 235.071 192.392C234.92 192.143 234.704 191.944 234.424 191.796C234.147 191.648 233.817 191.574 233.435 191.574H231.323V194.606ZM231.323 190.461H233.236C233.557 190.461 233.845 190.399 234.1 190.276C234.359 190.153 234.564 189.98 234.715 189.758C234.869 189.534 234.946 189.269 234.946 188.964C234.946 188.572 234.809 188.244 234.535 187.979C234.261 187.714 233.84 187.582 233.273 187.582H231.323V190.461ZM246.269 189.444H244.828C244.772 189.136 244.669 188.865 244.518 188.631C244.367 188.397 244.182 188.198 243.963 188.035C243.745 187.872 243.5 187.748 243.229 187.665C242.961 187.582 242.676 187.54 242.374 187.54C241.829 187.54 241.34 187.678 240.909 187.952C240.481 188.226 240.142 188.628 239.893 189.158C239.646 189.688 239.523 190.334 239.523 191.098C239.523 191.869 239.646 192.519 239.893 193.048C240.142 193.578 240.482 193.979 240.914 194.25C241.345 194.521 241.83 194.656 242.369 194.656C242.668 194.656 242.952 194.616 243.22 194.536C243.491 194.453 243.736 194.331 243.954 194.171C244.173 194.011 244.358 193.815 244.509 193.584C244.663 193.35 244.769 193.082 244.828 192.78L246.269 192.785C246.192 193.25 246.043 193.678 245.821 194.07C245.602 194.458 245.32 194.793 244.975 195.077C244.633 195.357 244.242 195.574 243.802 195.728C243.361 195.882 242.881 195.959 242.36 195.959C241.541 195.959 240.811 195.765 240.17 195.377C239.529 194.986 239.024 194.427 238.654 193.7C238.288 192.973 238.104 192.106 238.104 191.098C238.104 190.088 238.289 189.221 238.659 188.497C239.028 187.77 239.534 187.212 240.174 186.824C240.815 186.433 241.544 186.237 242.36 186.237C242.862 186.237 243.33 186.31 243.765 186.455C244.202 186.596 244.595 186.806 244.943 187.083C245.291 187.357 245.579 187.693 245.807 188.09C246.035 188.485 246.189 188.936 246.269 189.444ZM247.262 195.83V194.592L247.539 194.582C247.915 194.573 248.21 194.445 248.426 194.199C248.645 193.953 248.803 193.555 248.902 193.007C249.004 192.458 249.071 191.727 249.105 190.812L249.267 186.367H255.251V195.83H253.841V187.577H250.612L250.464 191.191C250.424 192.204 250.322 193.056 250.159 193.746C249.995 194.433 249.718 194.952 249.327 195.303C248.939 195.654 248.386 195.83 247.668 195.83H247.262ZM265.19 189.444H263.748C263.693 189.136 263.59 188.865 263.439 188.631C263.288 188.397 263.103 188.198 262.884 188.035C262.666 187.872 262.421 187.748 262.15 187.665C261.882 187.582 261.597 187.54 261.295 187.54C260.75 187.54 260.261 187.678 259.83 187.952C259.402 188.226 259.063 188.628 258.813 189.158C258.567 189.688 258.444 190.334 258.444 191.098C258.444 191.869 258.567 192.519 258.813 193.048C259.063 193.578 259.403 193.979 259.835 194.25C260.266 194.521 260.751 194.656 261.29 194.656C261.589 194.656 261.872 194.616 262.14 194.536C262.411 194.453 262.656 194.331 262.875 194.171C263.094 194.011 263.279 193.815 263.43 193.584C263.584 193.35 263.69 193.082 263.748 192.78L265.19 192.785C265.113 193.25 264.964 193.678 264.742 194.07C264.523 194.458 264.241 194.793 263.896 195.077C263.554 195.357 263.163 195.574 262.723 195.728C262.282 195.882 261.802 195.959 261.281 195.959C260.461 195.959 259.731 195.765 259.091 195.377C258.45 194.986 257.945 194.427 257.575 193.7C257.208 192.973 257.025 192.106 257.025 191.098C257.025 190.088 257.21 189.221 257.58 188.497C257.949 187.77 258.455 187.212 259.095 186.824C259.736 186.433 260.465 186.237 261.281 186.237C261.783 186.237 262.251 186.31 262.686 186.455C263.123 186.596 263.516 186.806 263.864 187.083C264.212 187.357 264.5 187.693 264.728 188.09C264.956 188.485 265.11 188.936 265.19 189.444ZM266.432 187.596V186.367H273.756V187.596H270.803V195.83H269.38V187.596H266.432ZM275.374 195.83V186.367H278.84C279.511 186.367 280.067 186.478 280.508 186.699C280.948 186.918 281.278 187.215 281.497 187.591C281.715 187.964 281.825 188.384 281.825 188.853C281.825 189.247 281.752 189.58 281.608 189.851C281.463 190.119 281.269 190.334 281.025 190.498C280.785 190.658 280.52 190.775 280.231 190.849V190.941C280.545 190.957 280.851 191.058 281.15 191.246C281.452 191.431 281.702 191.695 281.899 192.036C282.096 192.378 282.194 192.794 282.194 193.284C282.194 193.768 282.08 194.202 281.853 194.587C281.628 194.969 281.28 195.273 280.808 195.497C280.337 195.719 279.735 195.83 279.001 195.83H275.374ZM276.802 194.606H278.863C279.547 194.606 280.037 194.473 280.332 194.208C280.628 193.943 280.776 193.612 280.776 193.215C280.776 192.916 280.7 192.642 280.549 192.392C280.399 192.143 280.183 191.944 279.903 191.796C279.625 191.648 279.296 191.574 278.914 191.574H276.802V194.606ZM276.802 190.461H278.715C279.035 190.461 279.323 190.399 279.579 190.276C279.838 190.153 280.043 189.98 280.194 189.758C280.348 189.534 280.425 189.269 280.425 188.964C280.425 188.572 280.288 188.244 280.013 187.979C279.739 187.714 279.319 187.582 278.752 187.582H276.802V190.461ZM283.888 186.367H285.302V193.316H285.39L290.205 186.367H291.526V195.83H290.098V188.89H290.01L285.205 195.83H283.888V186.367ZM300.318 195.83H298.886V187.591H297.093C296.625 187.591 296.244 187.662 295.952 187.804C295.659 187.942 295.445 188.143 295.309 188.405C295.174 188.666 295.106 188.976 295.106 189.333C295.106 189.688 295.174 189.991 295.309 190.244C295.445 190.496 295.657 190.689 295.947 190.821C296.237 190.954 296.614 191.02 297.079 191.02H299.505V192.249H296.945C296.215 192.249 295.607 192.127 295.12 191.884C294.636 191.641 294.273 191.3 294.029 190.863C293.789 190.422 293.669 189.912 293.669 189.333C293.669 188.751 293.789 188.238 294.029 187.795C294.27 187.348 294.632 186.998 295.115 186.746C295.602 186.493 296.21 186.367 296.94 186.367H300.318V195.83ZM295.647 191.56H297.227L294.93 195.83H293.309L295.647 191.56Z" fill="#FF7700"/>
<defs>
<filter id="filter0_f_1889_242" x="-72" y="-117" width="532" height="487" filterUnits="userSpaceOnUse" color-interpolation-filters="sRGB">
<feFlood flood-opacity="0" result="BackgroundImageFix"/>
<feBlend mode="normal" in="SourceGraphic" in2="BackgroundImageFix" result="shape"/>
<feGaussianBlur stdDeviation="82" result="effect1_foregroundBlur_1889_242"/>
</filter>
<clipPath id="clip0_1889_242">
<rect width="69.1358" height="69.1358" fill="white" transform="translate(160.755 44.5586)"/>
</clipPath>
</defs>
</svg>
