<svg width="253" height="156" viewBox="0 0 253 156" fill="none" xmlns="http://www.w3.org/2000/svg">
<g clip-path="url(#clip0_2026_147)">
<path d="M150.19 83.1298C148.1 83.0998 146.01 83.0798 143.92 83.0498C143.98 72.2998 144.04 61.5498 144.1 50.8098C144.14 43.6898 144.14 36.3498 141.46 29.7498C137.55 20.1398 127.77 13.2398 117.41 12.7198C107.05 12.1998 96.6499 18.0598 91.6699 27.1598C86.6899 36.2598 87.3699 48.1498 93.2899 56.6598C99.2099 65.1698 110.09 69.9498 120.37 68.5998C123.64 68.1698 127.02 67.0598 129.17 64.5598C128.16 65.0398 127.35 63.2398 128.11 62.4198C128.87 61.5998 130.16 61.6298 131.28 61.7398C134.81 62.0598 138.34 62.3898 141.88 62.7098C142.54 62.7698 143.32 62.9098 143.59 63.5198C143.77 63.9298 143.64 64.4098 143.51 64.8398C142.1 69.3998 140.68 73.9598 139.27 78.5198C138.98 79.4498 138.07 80.5998 137.31 79.9898C136.79 79.5698 137.02 78.7098 136.7 78.1198C136.17 77.1498 134.71 77.5498 133.72 78.0298C124.71 82.4098 114.02 83.2198 104.45 80.2498C85.4999 74.3898 73.8999 55.0398 76.3199 35.5898C77.0099 30.0198 78.7999 24.5798 81.6899 19.7598C89.2499 7.11977 104.12 -0.82023 118.82 0.0697705C133.52 0.95977 147.38 10.6898 153.07 24.2798C157.24 34.2598 157.12 45.4398 156.93 56.2598C156.79 64.3298 156.65 72.3998 156.5 80.4698C156.48 81.3998 156.37 82.5098 155.55 82.9598C155.15 83.1798 154.66 83.1798 154.19 83.1798C152.86 83.1698 151.53 83.1498 150.19 83.1298Z" fill="#006BCF"/>
<path d="M116.77 60.79C115.92 60.82 115.06 60.78 114.21 60.69C104.44 59.65 97.13 51.25 96.61 41.6C96.41 37.85 97.18 34.03 98.93 30.7C101.36 26.07 105.64 22.38 110.68 20.98C113.4 20.23 116.27 20.13 119.08 20.38C120.52 20.51 121.96 20.72 123.32 21.2C124.41 21.58 125.44 22.12 126.42 22.73C131.59 25.98 135.25 31.56 136.11 37.61C136.97 43.66 134.97 50.06 130.78 54.51C127.18 58.33 122.01 60.63 116.77 60.79Z" fill="#FFA600"/>
</g>
<path d="M0.57508 143L6.30088 107.145H14.552L20.2778 143H14.602L13.6269 136.499H6.70094L5.7258 143H0.57508ZM7.42604 131.623H12.8518L10.1514 113.496L7.42604 131.623ZM22.0281 134.399V132.198H27.3538V134.749C27.3538 137.083 28.329 138.249 30.2792 138.249C32.2295 138.249 33.2046 137.083 33.2046 134.749C33.2046 133.749 32.9963 132.807 32.5796 131.923C32.1795 131.04 31.6544 130.248 31.0043 129.548C30.3709 128.831 29.6625 128.123 28.879 127.423C28.0956 126.706 27.3038 125.964 26.5037 125.198C25.7203 124.414 25.0035 123.589 24.3534 122.722C23.72 121.855 23.1949 120.822 22.7782 119.622C22.3781 118.422 22.1781 117.13 22.1781 115.746C22.1781 112.862 22.8782 110.645 24.2784 109.095C25.6953 107.528 27.7622 106.745 30.4793 106.745C33.1963 106.745 35.2549 107.528 36.6551 109.095C38.072 110.645 38.7804 112.862 38.7804 115.746V116.896H33.4547V115.396C33.4547 113.046 32.5129 111.871 30.6293 111.871C29.6958 111.871 28.9957 112.154 28.529 112.721C28.0623 113.271 27.8289 114.163 27.8289 115.396C27.8289 116.396 28.0289 117.338 28.429 118.222C28.8457 119.105 29.3708 119.905 30.0042 120.622C30.6543 121.322 31.3711 122.03 32.1545 122.747C32.9379 123.447 33.7214 124.189 34.5048 124.972C35.2883 125.739 35.9967 126.556 36.6301 127.423C37.2802 128.29 37.8053 129.323 38.2053 130.523C38.6221 131.723 38.8304 133.015 38.8304 134.399C38.8304 137.283 38.1137 139.508 36.6801 141.075C35.2466 142.625 33.163 143.4 30.4293 143.4C27.6955 143.4 25.6119 142.625 24.1784 141.075C22.7448 139.508 22.0281 137.283 22.0281 134.399ZM40.4056 112.271V107.145H57.8331V112.271H51.9323V143H46.3065V112.271H40.4056ZM59.8334 134.399V115.746C59.8334 112.879 60.5751 110.662 62.0587 109.095C63.5422 107.528 65.6592 106.745 68.4096 106.745C71.16 106.745 73.2686 107.528 74.7355 109.095C76.219 110.662 76.9608 112.879 76.9608 115.746V134.399C76.9608 137.266 76.219 139.483 74.7355 141.05C73.2686 142.617 71.16 143.4 68.4096 143.4C65.6592 143.4 63.5422 142.617 62.0587 141.05C60.5751 139.483 59.8334 137.266 59.8334 134.399ZM65.4842 134.749C65.4842 137.116 66.4593 138.299 68.4096 138.299C70.3432 138.299 71.31 137.116 71.31 134.749V115.396C71.31 113.046 70.3432 111.871 68.4096 111.871C66.4593 111.871 65.4842 113.046 65.4842 115.396V134.749ZM80.5613 143V107.145H87.6123L93.4131 128.623V107.145H98.4388V143H92.638L85.637 117.046V143H80.5613ZM108.94 143L114.666 107.145H122.917L128.643 143H122.967L121.992 136.499H115.066L114.091 143H108.94ZM115.791 131.623H121.217L118.517 113.496L115.791 131.623ZM131.268 143V107.145H136.894V137.874H146.17V143H131.268ZM148.621 143V107.145H154.247V137.874H163.523V143H148.621ZM165.973 143V107.145H171.599V143H165.973ZM175.725 143V107.145H191.077V112.271H181.35V122.272H189.076V127.373H181.35V137.874H191.077V143H175.725ZM194.527 143V107.145H201.578L207.379 128.623V107.145H212.405V143H206.604L199.603 117.046V143H194.527ZM215.955 134.399V115.746C215.955 112.862 216.672 110.645 218.105 109.095C219.539 107.528 221.623 106.745 224.356 106.745C227.09 106.745 229.174 107.528 230.607 109.095C232.041 110.645 232.758 112.862 232.758 115.746V119.247H227.432V115.396C227.432 113.046 226.465 111.871 224.531 111.871C222.581 111.871 221.606 113.046 221.606 115.396V134.749C221.606 137.083 222.581 138.249 224.531 138.249C226.465 138.249 227.432 137.083 227.432 134.749V129.623H232.758V134.399C232.758 137.283 232.041 139.508 230.607 141.075C229.174 142.625 227.09 143.4 224.356 143.4C221.623 143.4 219.539 142.625 218.105 141.075C216.672 139.508 215.955 137.283 215.955 134.399ZM236.183 143V107.145H251.535V112.271H241.809V122.272H249.535V127.373H241.809V137.874H251.535V143H236.183Z" fill="white"/>
<defs>
<clipPath id="clip0_2026_147">
<rect width="81" height="83.19" fill="white" transform="translate(76)"/>
</clipPath>
</defs>
</svg>
