<svg width="269" height="99" viewBox="0 0 269 99" fill="none" xmlns="http://www.w3.org/2000/svg">
<path d="M76.0217 73.135H63.8762V8.02686H76.0217V38.7971C77.7917 31.3145 83.127 24.9728 92.6655 24.9728C102.008 24.9728 107.51 30.3201 107.51 40.135V73.135H96.2642V43.2566C96.2642 37.426 94.643 33.4458 87.2675 33.4458C79.204 33.4458 76.0217 39.0501 76.0217 46.8242V73.135Z" fill="#00499D"/>
<path d="M190.787 73.1353H178.583V25.9422H190.787V39.3292C192.559 31.7705 196.201 24.9731 204.764 24.9731C210.767 24.9731 235.028 24.9733 240.66 24.9731C240.66 26.3624 221.767 31.4565 221.767 33.3089H218.951C214.257 33.3089 211.91 33.3089 207.686 33.3089C205.808 33.3089 203.423 33.3089 200.175 33.3089C194.664 33.3089 190.787 39.3525 190.787 47.2019V73.1353Z" fill="#00499D"/>
<path d="M241.507 73.1353C223.602 73.1353 211.871 63.5409 211.871 49.1018C211.871 34.5676 223.602 24.9731 240.519 24.9731C258.548 24.9731 268.55 33.0002 268.55 49.9461C268.55 51.6561 268.55 50.3921 268.55 51.6666H225.084C225.825 59.9311 232.123 64.3958 241.63 64.3958C249.207 64.3958 256.078 60.6488 256.855 56.1894H268.55C267.651 66.8921 254.605 73.1353 241.507 73.1353ZM240.519 33.5226C232 33.5226 226.319 37.3225 225.208 44.827H256.078C255.09 37.5124 249.657 33.5226 240.519 33.5226Z" fill="#00499D"/>
<path d="M144.343 73.1353C126.438 73.1353 114.707 63.5409 114.707 49.1018C114.707 34.5676 126.438 24.9731 143.355 24.9731C161.384 24.9731 171.386 33.0002 171.386 49.9461C171.386 51.6561 171.386 50.3921 171.386 51.6666H127.92C128.661 59.9311 134.959 64.3958 144.466 64.3958C152.043 64.3958 158.914 60.6488 159.691 56.1894H171.386C170.487 66.8921 157.441 73.1353 144.343 73.1353ZM143.355 33.5226C134.835 33.5226 129.155 37.3225 128.044 44.827H158.914C157.926 37.5124 152.493 33.5226 143.355 33.5226Z" fill="#00499D"/>
<path d="M28.116 24.9731C11.2458 24.9731 0 34.6626 0 49.0067C0 63.4459 11.2458 73.1353 28.116 73.1353C46.7826 73.1353 55.7793 66.0002 56.6789 55.2975H44.9833C43.1839 60.2029 37.786 64.2164 28.3395 64.2164C17.9933 63.7704 13.1164 58.7912 13.1164 49.0067C13.1164 39.3173 17.9933 33.8921 28.3395 33.8921C37.786 33.8921 43.1839 37.0137 44.9833 41.9191H56.6789C54.8796 31.2164 46.7826 24.9731 28.116 24.9731Z" fill="#00499D"/>
<path d="M149.794 12.0171C149.794 15.9577 146.572 19.1522 142.597 19.1522C138.622 19.1522 135.4 15.9577 135.4 12.0171C135.4 8.07645 142.597 0 142.597 0C142.597 0 149.794 8.07645 149.794 12.0171Z" fill="#CCA55D"/>
<mask id="path-7-outside-1_1889_252" maskUnits="userSpaceOnUse" x="57.6978" y="85.5063" width="154" height="11" fill="black">
<rect fill="white" x="57.6978" y="85.5063" width="154" height="11"/>
<path d="M59.619 94.5405H58.6978V86.5063H61.7782C62.6707 86.5063 63.3521 86.7204 63.8223 87.1485C64.2925 87.5766 64.5276 88.2141 64.5276 89.0607C64.5276 89.8501 64.2829 90.4592 63.7935 90.8873C63.3137 91.3154 62.6419 91.5295 61.7782 91.5295H59.619V94.5405ZM61.6774 87.2912H59.619V90.816H61.6774C62.3108 90.816 62.8002 90.6733 63.1457 90.3879C63.5008 90.0926 63.6783 89.6503 63.6783 89.0607C63.6783 88.4518 63.5056 88.0047 63.1601 87.7193C62.8243 87.4339 62.3301 87.2912 61.6774 87.2912ZM70.39 94.7403C69.3055 94.7403 68.4706 94.4264 67.8853 93.7985C67.3095 93.1608 67.0216 92.2671 67.0216 91.1157V86.5063H67.9717V91.1157C67.9717 92.0762 68.202 92.7755 68.6626 93.2134C69.1233 93.6513 69.699 93.8698 70.39 93.8698C71.1385 93.8698 71.7287 93.6558 72.1605 93.2276C72.6019 92.7897 72.8227 92.086 72.8227 91.1157V86.5063H73.7727V91.1157C73.7727 92.2858 73.4848 93.1848 72.9091 93.8127C72.3428 94.4308 71.5031 94.7403 70.39 94.7403ZM76.9128 94.5405V86.5063H79.5902C80.6171 86.5063 81.4088 86.6681 81.9654 86.9915C82.5316 87.315 82.8146 87.9191 82.8146 88.8039C82.8146 89.3747 82.6563 89.8697 82.3396 90.288C82.0326 90.6974 81.5575 90.9016 80.9145 90.9016C81.3176 90.9016 81.6151 90.9872 81.807 91.1585C82.0085 91.3297 82.143 91.5482 82.2101 91.8149C82.2869 92.0718 82.3301 92.3429 82.3396 92.6283C82.3492 92.9039 82.3684 93.1563 82.3972 93.3846C82.426 93.6129 82.4932 93.7797 82.5987 93.8841C82.7139 93.9884 82.9059 93.9938 83.1745 93.8983V94.4977C83.0881 94.5735 82.9538 94.6261 82.7715 94.6547C82.5987 94.693 82.4165 94.6832 82.2245 94.6261C82.0326 94.5691 81.8695 94.4406 81.735 94.2408C81.6104 94.0411 81.5479 93.7458 81.5479 93.3561C81.5479 92.7665 81.5144 92.3099 81.4472 91.9861C81.38 91.6624 81.2265 91.4341 80.9865 91.3012C80.7562 91.1683 80.3916 91.0916 79.8925 91.0728C79.3936 91.0541 78.7122 91.0541 77.8485 91.0728V94.5405H76.9128ZM77.8485 90.3736H79.7342C80.4923 90.3736 81.0537 90.2737 81.4184 90.0739C81.7926 89.8741 81.9798 89.4701 81.9798 88.8609C81.9798 88.3853 81.879 88.038 81.6775 87.8192C81.4759 87.5909 81.1833 87.4482 80.7994 87.3911C80.4251 87.3245 79.9597 87.2912 79.4031 87.2912H77.8485V90.3736ZM86.8344 93.7699H91.4979V94.5405H85.9275V86.5063H91.3539V87.3198H86.8344V90.0882H90.4183V90.8588H86.8344V93.7699ZM104.883 86.5063H105.819V94.5405H104.077L100.046 86.9202H100.018V94.5405H99.082V86.5063H100.709L104.854 94.1267H104.883V86.5063ZM108.367 94.5405L111.217 86.5063H112.743L115.636 94.5405H114.657L113.779 92.0289H110.223L109.345 94.5405H108.367ZM112.008 86.9059L110.483 91.2584H113.52L112.008 86.9059ZM116.818 87.3055V86.5063H122.936V87.3055H120.345V94.5405H119.423V87.3055H116.818ZM128.696 94.7403C127.612 94.7403 126.777 94.4264 126.192 93.7985C125.616 93.1608 125.328 92.2671 125.328 91.1157V86.5063H126.278V91.1157C126.278 92.0762 126.508 92.7755 126.969 93.2134C127.43 93.6513 128.005 93.8698 128.696 93.8698C129.445 93.8698 130.035 93.6558 130.467 93.2276C130.909 92.7897 131.129 92.086 131.129 91.1157V86.5063H132.079V91.1157C132.079 92.2858 131.791 93.1848 131.215 93.8127C130.649 94.4308 129.81 94.7403 128.696 94.7403ZM135.22 94.5405V86.5063H137.897C138.924 86.5063 139.715 86.6681 140.272 86.9915C140.838 87.315 141.122 87.9191 141.122 88.8039C141.122 89.3747 140.963 89.8697 140.647 90.288C140.339 90.6974 139.864 90.9016 139.222 90.9016C139.625 90.9016 139.921 90.9872 140.114 91.1585C140.316 91.3297 140.45 91.5482 140.517 91.8149C140.594 92.0718 140.637 92.3429 140.647 92.6283C140.656 92.9039 140.675 93.1563 140.704 93.3846C140.733 93.6129 140.8 93.7797 140.906 93.8841C141.021 93.9884 141.212 93.9938 141.481 93.8983V94.4977C141.395 94.5735 141.26 94.6261 141.078 94.6547C140.906 94.693 140.723 94.6832 140.531 94.6261C140.339 94.5691 140.176 94.4406 140.042 94.2408C139.917 94.0411 139.855 93.7458 139.855 93.3561C139.855 92.7665 139.821 92.3099 139.754 91.9861C139.687 91.6624 139.533 91.4341 139.293 91.3012C139.063 91.1683 138.698 91.0916 138.199 91.0728C137.7 91.0541 137.019 91.0541 136.155 91.0728V94.5405H135.22ZM136.155 90.3736H138.041C138.799 90.3736 139.36 90.2737 139.725 90.0739C140.1 89.8741 140.287 89.4701 140.287 88.8609C140.287 88.3853 140.186 88.038 139.984 87.8192C139.783 87.5909 139.49 87.4482 139.106 87.3911C138.732 87.3245 138.266 87.2912 137.71 87.2912H136.155V90.3736ZM143.828 94.5405L146.678 86.5063H148.204L151.097 94.5405H150.118L149.24 92.0289H145.685L144.807 94.5405H143.828ZM147.47 86.9059L145.944 91.2584H148.981L147.47 86.9059ZM153.746 94.5405V86.5063H154.667V93.7414H159.158V94.5405H153.746ZM176.592 86.5063H177.599L175.21 94.5405H173.699L171.741 87.7193L169.726 94.5405H168.214L165.911 86.5063H166.89L168.977 94.1124L171.251 86.5063H172.245L174.447 94.1124L176.592 86.5063ZM178.923 94.5405L181.773 86.5063H183.299L186.192 94.5405H185.213L184.335 92.0289H180.78L179.902 94.5405H178.923ZM182.565 86.9059L181.039 91.2584H184.076L182.565 86.9059ZM187.374 87.3055V86.5063H193.492V87.3055H190.901V94.5405H189.98V87.3055H187.374ZM196.962 93.7699H201.626V94.5405H196.055V86.5063H201.482V87.3198H196.962V90.0882H200.546V90.8588H196.962V93.7699ZM204.454 94.5405V86.5063H207.132C208.158 86.5063 208.95 86.6681 209.507 86.9915C210.073 87.315 210.356 87.9191 210.356 88.8039C210.356 89.3747 210.198 89.8697 209.881 90.288C209.574 90.6974 209.099 90.9016 208.456 90.9016C208.859 90.9016 209.157 90.9872 209.349 91.1585C209.55 91.3297 209.684 91.5482 209.752 91.8149C209.828 92.0718 209.871 92.3429 209.881 92.6283C209.891 92.9039 209.91 93.1563 209.939 93.3846C209.968 93.6129 210.035 93.7797 210.14 93.8841C210.256 93.9884 210.447 93.9938 210.716 93.8983V94.4977C210.63 94.5735 210.496 94.6261 210.313 94.6547C210.14 94.693 209.958 94.6832 209.766 94.6261C209.574 94.5691 209.411 94.4406 209.277 94.2408C209.152 94.0411 209.09 93.7458 209.09 93.3561C209.09 92.7665 209.056 92.3099 208.989 91.9861C208.921 91.6624 208.768 91.4341 208.528 91.3012C208.298 91.1683 207.933 91.0916 207.434 91.0728C206.935 91.0541 206.254 91.0541 205.39 91.0728V94.5405H204.454ZM205.39 90.3736H207.276C208.034 90.3736 208.596 90.2737 208.96 90.0739C209.334 89.8741 209.521 89.4701 209.521 88.8609C209.521 88.3853 209.421 88.038 209.219 87.8192C209.018 87.5909 208.725 87.4482 208.341 87.3911C207.967 87.3245 207.502 87.2912 206.945 87.2912H205.39V90.3736Z"/>
</mask>
<path d="M59.619 94.5405H58.6978V86.5063H61.7782C62.6707 86.5063 63.3521 86.7204 63.8223 87.1485C64.2925 87.5766 64.5276 88.2141 64.5276 89.0607C64.5276 89.8501 64.2829 90.4592 63.7935 90.8873C63.3137 91.3154 62.6419 91.5295 61.7782 91.5295H59.619V94.5405ZM61.6774 87.2912H59.619V90.816H61.6774C62.3108 90.816 62.8002 90.6733 63.1457 90.3879C63.5008 90.0926 63.6783 89.6503 63.6783 89.0607C63.6783 88.4518 63.5056 88.0047 63.1601 87.7193C62.8243 87.4339 62.3301 87.2912 61.6774 87.2912ZM70.39 94.7403C69.3055 94.7403 68.4706 94.4264 67.8853 93.7985C67.3095 93.1608 67.0216 92.2671 67.0216 91.1157V86.5063H67.9717V91.1157C67.9717 92.0762 68.202 92.7755 68.6626 93.2134C69.1233 93.6513 69.699 93.8698 70.39 93.8698C71.1385 93.8698 71.7287 93.6558 72.1605 93.2276C72.6019 92.7897 72.8227 92.086 72.8227 91.1157V86.5063H73.7727V91.1157C73.7727 92.2858 73.4848 93.1848 72.9091 93.8127C72.3428 94.4308 71.5031 94.7403 70.39 94.7403ZM76.9128 94.5405V86.5063H79.5902C80.6171 86.5063 81.4088 86.6681 81.9654 86.9915C82.5316 87.315 82.8146 87.9191 82.8146 88.8039C82.8146 89.3747 82.6563 89.8697 82.3396 90.288C82.0326 90.6974 81.5575 90.9016 80.9145 90.9016C81.3176 90.9016 81.6151 90.9872 81.807 91.1585C82.0085 91.3297 82.143 91.5482 82.2101 91.8149C82.2869 92.0718 82.3301 92.3429 82.3396 92.6283C82.3492 92.9039 82.3684 93.1563 82.3972 93.3846C82.426 93.6129 82.4932 93.7797 82.5987 93.8841C82.7139 93.9884 82.9059 93.9938 83.1745 93.8983V94.4977C83.0881 94.5735 82.9538 94.6261 82.7715 94.6547C82.5987 94.693 82.4165 94.6832 82.2245 94.6261C82.0326 94.5691 81.8695 94.4406 81.735 94.2408C81.6104 94.0411 81.5479 93.7458 81.5479 93.3561C81.5479 92.7665 81.5144 92.3099 81.4472 91.9861C81.38 91.6624 81.2265 91.4341 80.9865 91.3012C80.7562 91.1683 80.3916 91.0916 79.8925 91.0728C79.3936 91.0541 78.7122 91.0541 77.8485 91.0728V94.5405H76.9128ZM77.8485 90.3736H79.7342C80.4923 90.3736 81.0537 90.2737 81.4184 90.0739C81.7926 89.8741 81.9798 89.4701 81.9798 88.8609C81.9798 88.3853 81.879 88.038 81.6775 87.8192C81.4759 87.5909 81.1833 87.4482 80.7994 87.3911C80.4251 87.3245 79.9597 87.2912 79.4031 87.2912H77.8485V90.3736ZM86.8344 93.7699H91.4979V94.5405H85.9275V86.5063H91.3539V87.3198H86.8344V90.0882H90.4183V90.8588H86.8344V93.7699ZM104.883 86.5063H105.819V94.5405H104.077L100.046 86.9202H100.018V94.5405H99.082V86.5063H100.709L104.854 94.1267H104.883V86.5063ZM108.367 94.5405L111.217 86.5063H112.743L115.636 94.5405H114.657L113.779 92.0289H110.223L109.345 94.5405H108.367ZM112.008 86.9059L110.483 91.2584H113.52L112.008 86.9059ZM116.818 87.3055V86.5063H122.936V87.3055H120.345V94.5405H119.423V87.3055H116.818ZM128.696 94.7403C127.612 94.7403 126.777 94.4264 126.192 93.7985C125.616 93.1608 125.328 92.2671 125.328 91.1157V86.5063H126.278V91.1157C126.278 92.0762 126.508 92.7755 126.969 93.2134C127.43 93.6513 128.005 93.8698 128.696 93.8698C129.445 93.8698 130.035 93.6558 130.467 93.2276C130.909 92.7897 131.129 92.086 131.129 91.1157V86.5063H132.079V91.1157C132.079 92.2858 131.791 93.1848 131.215 93.8127C130.649 94.4308 129.81 94.7403 128.696 94.7403ZM135.22 94.5405V86.5063H137.897C138.924 86.5063 139.715 86.6681 140.272 86.9915C140.838 87.315 141.122 87.9191 141.122 88.8039C141.122 89.3747 140.963 89.8697 140.647 90.288C140.339 90.6974 139.864 90.9016 139.222 90.9016C139.625 90.9016 139.921 90.9872 140.114 91.1585C140.316 91.3297 140.45 91.5482 140.517 91.8149C140.594 92.0718 140.637 92.3429 140.647 92.6283C140.656 92.9039 140.675 93.1563 140.704 93.3846C140.733 93.6129 140.8 93.7797 140.906 93.8841C141.021 93.9884 141.212 93.9938 141.481 93.8983V94.4977C141.395 94.5735 141.26 94.6261 141.078 94.6547C140.906 94.693 140.723 94.6832 140.531 94.6261C140.339 94.5691 140.176 94.4406 140.042 94.2408C139.917 94.0411 139.855 93.7458 139.855 93.3561C139.855 92.7665 139.821 92.3099 139.754 91.9861C139.687 91.6624 139.533 91.4341 139.293 91.3012C139.063 91.1683 138.698 91.0916 138.199 91.0728C137.7 91.0541 137.019 91.0541 136.155 91.0728V94.5405H135.22ZM136.155 90.3736H138.041C138.799 90.3736 139.36 90.2737 139.725 90.0739C140.1 89.8741 140.287 89.4701 140.287 88.8609C140.287 88.3853 140.186 88.038 139.984 87.8192C139.783 87.5909 139.49 87.4482 139.106 87.3911C138.732 87.3245 138.266 87.2912 137.71 87.2912H136.155V90.3736ZM143.828 94.5405L146.678 86.5063H148.204L151.097 94.5405H150.118L149.24 92.0289H145.685L144.807 94.5405H143.828ZM147.47 86.9059L145.944 91.2584H148.981L147.47 86.9059ZM153.746 94.5405V86.5063H154.667V93.7414H159.158V94.5405H153.746ZM176.592 86.5063H177.599L175.21 94.5405H173.699L171.741 87.7193L169.726 94.5405H168.214L165.911 86.5063H166.89L168.977 94.1124L171.251 86.5063H172.245L174.447 94.1124L176.592 86.5063ZM178.923 94.5405L181.773 86.5063H183.299L186.192 94.5405H185.213L184.335 92.0289H180.78L179.902 94.5405H178.923ZM182.565 86.9059L181.039 91.2584H184.076L182.565 86.9059ZM187.374 87.3055V86.5063H193.492V87.3055H190.901V94.5405H189.98V87.3055H187.374ZM196.962 93.7699H201.626V94.5405H196.055V86.5063H201.482V87.3198H196.962V90.0882H200.546V90.8588H196.962V93.7699ZM204.454 94.5405V86.5063H207.132C208.158 86.5063 208.95 86.6681 209.507 86.9915C210.073 87.315 210.356 87.9191 210.356 88.8039C210.356 89.3747 210.198 89.8697 209.881 90.288C209.574 90.6974 209.099 90.9016 208.456 90.9016C208.859 90.9016 209.157 90.9872 209.349 91.1585C209.55 91.3297 209.684 91.5482 209.752 91.8149C209.828 92.0718 209.871 92.3429 209.881 92.6283C209.891 92.9039 209.91 93.1563 209.939 93.3846C209.968 93.6129 210.035 93.7797 210.14 93.8841C210.256 93.9884 210.447 93.9938 210.716 93.8983V94.4977C210.63 94.5735 210.496 94.6261 210.313 94.6547C210.14 94.693 209.958 94.6832 209.766 94.6261C209.574 94.5691 209.411 94.4406 209.277 94.2408C209.152 94.0411 209.09 93.7458 209.09 93.3561C209.09 92.7665 209.056 92.3099 208.989 91.9861C208.921 91.6624 208.768 91.4341 208.528 91.3012C208.298 91.1683 207.933 91.0916 207.434 91.0728C206.935 91.0541 206.254 91.0541 205.39 91.0728V94.5405H204.454ZM205.39 90.3736H207.276C208.034 90.3736 208.596 90.2737 208.96 90.0739C209.334 89.8741 209.521 89.4701 209.521 88.8609C209.521 88.3853 209.421 88.038 209.219 87.8192C209.018 87.5909 208.725 87.4482 208.341 87.3911C207.967 87.3245 207.502 87.2912 206.945 87.2912H205.39V90.3736Z" fill="#CCA55D"/>
<path d="M59.619 94.5405H58.6978V86.5063H61.7782C62.6707 86.5063 63.3521 86.7204 63.8223 87.1485C64.2925 87.5766 64.5276 88.2141 64.5276 89.0607C64.5276 89.8501 64.2829 90.4592 63.7935 90.8873C63.3137 91.3154 62.6419 91.5295 61.7782 91.5295H59.619V94.5405ZM61.6774 87.2912H59.619V90.816H61.6774C62.3108 90.816 62.8002 90.6733 63.1457 90.3879C63.5008 90.0926 63.6783 89.6503 63.6783 89.0607C63.6783 88.4518 63.5056 88.0047 63.1601 87.7193C62.8243 87.4339 62.3301 87.2912 61.6774 87.2912ZM70.39 94.7403C69.3055 94.7403 68.4706 94.4264 67.8853 93.7985C67.3095 93.1608 67.0216 92.2671 67.0216 91.1157V86.5063H67.9717V91.1157C67.9717 92.0762 68.202 92.7755 68.6626 93.2134C69.1233 93.6513 69.699 93.8698 70.39 93.8698C71.1385 93.8698 71.7287 93.6558 72.1605 93.2276C72.6019 92.7897 72.8227 92.086 72.8227 91.1157V86.5063H73.7727V91.1157C73.7727 92.2858 73.4848 93.1848 72.9091 93.8127C72.3428 94.4308 71.5031 94.7403 70.39 94.7403ZM76.9128 94.5405V86.5063H79.5902C80.6171 86.5063 81.4088 86.6681 81.9654 86.9915C82.5316 87.315 82.8146 87.9191 82.8146 88.8039C82.8146 89.3747 82.6563 89.8697 82.3396 90.288C82.0326 90.6974 81.5575 90.9016 80.9145 90.9016C81.3176 90.9016 81.6151 90.9872 81.807 91.1585C82.0085 91.3297 82.143 91.5482 82.2101 91.8149C82.2869 92.0718 82.3301 92.3429 82.3396 92.6283C82.3492 92.9039 82.3684 93.1563 82.3972 93.3846C82.426 93.6129 82.4932 93.7797 82.5987 93.8841C82.7139 93.9884 82.9059 93.9938 83.1745 93.8983V94.4977C83.0881 94.5735 82.9538 94.6261 82.7715 94.6547C82.5987 94.693 82.4165 94.6832 82.2245 94.6261C82.0326 94.5691 81.8695 94.4406 81.735 94.2408C81.6104 94.0411 81.5479 93.7458 81.5479 93.3561C81.5479 92.7665 81.5144 92.3099 81.4472 91.9861C81.38 91.6624 81.2265 91.4341 80.9865 91.3012C80.7562 91.1683 80.3916 91.0916 79.8925 91.0728C79.3936 91.0541 78.7122 91.0541 77.8485 91.0728V94.5405H76.9128ZM77.8485 90.3736H79.7342C80.4923 90.3736 81.0537 90.2737 81.4184 90.0739C81.7926 89.8741 81.9798 89.4701 81.9798 88.8609C81.9798 88.3853 81.879 88.038 81.6775 87.8192C81.4759 87.5909 81.1833 87.4482 80.7994 87.3911C80.4251 87.3245 79.9597 87.2912 79.4031 87.2912H77.8485V90.3736ZM86.8344 93.7699H91.4979V94.5405H85.9275V86.5063H91.3539V87.3198H86.8344V90.0882H90.4183V90.8588H86.8344V93.7699ZM104.883 86.5063H105.819V94.5405H104.077L100.046 86.9202H100.018V94.5405H99.082V86.5063H100.709L104.854 94.1267H104.883V86.5063ZM108.367 94.5405L111.217 86.5063H112.743L115.636 94.5405H114.657L113.779 92.0289H110.223L109.345 94.5405H108.367ZM112.008 86.9059L110.483 91.2584H113.52L112.008 86.9059ZM116.818 87.3055V86.5063H122.936V87.3055H120.345V94.5405H119.423V87.3055H116.818ZM128.696 94.7403C127.612 94.7403 126.777 94.4264 126.192 93.7985C125.616 93.1608 125.328 92.2671 125.328 91.1157V86.5063H126.278V91.1157C126.278 92.0762 126.508 92.7755 126.969 93.2134C127.43 93.6513 128.005 93.8698 128.696 93.8698C129.445 93.8698 130.035 93.6558 130.467 93.2276C130.909 92.7897 131.129 92.086 131.129 91.1157V86.5063H132.079V91.1157C132.079 92.2858 131.791 93.1848 131.215 93.8127C130.649 94.4308 129.81 94.7403 128.696 94.7403ZM135.22 94.5405V86.5063H137.897C138.924 86.5063 139.715 86.6681 140.272 86.9915C140.838 87.315 141.122 87.9191 141.122 88.8039C141.122 89.3747 140.963 89.8697 140.647 90.288C140.339 90.6974 139.864 90.9016 139.222 90.9016C139.625 90.9016 139.921 90.9872 140.114 91.1585C140.316 91.3297 140.45 91.5482 140.517 91.8149C140.594 92.0718 140.637 92.3429 140.647 92.6283C140.656 92.9039 140.675 93.1563 140.704 93.3846C140.733 93.6129 140.8 93.7797 140.906 93.8841C141.021 93.9884 141.212 93.9938 141.481 93.8983V94.4977C141.395 94.5735 141.26 94.6261 141.078 94.6547C140.906 94.693 140.723 94.6832 140.531 94.6261C140.339 94.5691 140.176 94.4406 140.042 94.2408C139.917 94.0411 139.855 93.7458 139.855 93.3561C139.855 92.7665 139.821 92.3099 139.754 91.9861C139.687 91.6624 139.533 91.4341 139.293 91.3012C139.063 91.1683 138.698 91.0916 138.199 91.0728C137.7 91.0541 137.019 91.0541 136.155 91.0728V94.5405H135.22ZM136.155 90.3736H138.041C138.799 90.3736 139.36 90.2737 139.725 90.0739C140.1 89.8741 140.287 89.4701 140.287 88.8609C140.287 88.3853 140.186 88.038 139.984 87.8192C139.783 87.5909 139.49 87.4482 139.106 87.3911C138.732 87.3245 138.266 87.2912 137.71 87.2912H136.155V90.3736ZM143.828 94.5405L146.678 86.5063H148.204L151.097 94.5405H150.118L149.24 92.0289H145.685L144.807 94.5405H143.828ZM147.47 86.9059L145.944 91.2584H148.981L147.47 86.9059ZM153.746 94.5405V86.5063H154.667V93.7414H159.158V94.5405H153.746ZM176.592 86.5063H177.599L175.21 94.5405H173.699L171.741 87.7193L169.726 94.5405H168.214L165.911 86.5063H166.89L168.977 94.1124L171.251 86.5063H172.245L174.447 94.1124L176.592 86.5063ZM178.923 94.5405L181.773 86.5063H183.299L186.192 94.5405H185.213L184.335 92.0289H180.78L179.902 94.5405H178.923ZM182.565 86.9059L181.039 91.2584H184.076L182.565 86.9059ZM187.374 87.3055V86.5063H193.492V87.3055H190.901V94.5405H189.98V87.3055H187.374ZM196.962 93.7699H201.626V94.5405H196.055V86.5063H201.482V87.3198H196.962V90.0882H200.546V90.8588H196.962V93.7699ZM204.454 94.5405V86.5063H207.132C208.158 86.5063 208.95 86.6681 209.507 86.9915C210.073 87.315 210.356 87.9191 210.356 88.8039C210.356 89.3747 210.198 89.8697 209.881 90.288C209.574 90.6974 209.099 90.9016 208.456 90.9016C208.859 90.9016 209.157 90.9872 209.349 91.1585C209.55 91.3297 209.684 91.5482 209.752 91.8149C209.828 92.0718 209.871 92.3429 209.881 92.6283C209.891 92.9039 209.91 93.1563 209.939 93.3846C209.968 93.6129 210.035 93.7797 210.14 93.8841C210.256 93.9884 210.447 93.9938 210.716 93.8983V94.4977C210.63 94.5735 210.496 94.6261 210.313 94.6547C210.14 94.693 209.958 94.6832 209.766 94.6261C209.574 94.5691 209.411 94.4406 209.277 94.2408C209.152 94.0411 209.09 93.7458 209.09 93.3561C209.09 92.7665 209.056 92.3099 208.989 91.9861C208.921 91.6624 208.768 91.4341 208.528 91.3012C208.298 91.1683 207.933 91.0916 207.434 91.0728C206.935 91.0541 206.254 91.0541 205.39 91.0728V94.5405H204.454ZM205.39 90.3736H207.276C208.034 90.3736 208.596 90.2737 208.96 90.0739C209.334 89.8741 209.521 89.4701 209.521 88.8609C209.521 88.3853 209.421 88.038 209.219 87.8192C209.018 87.5909 208.725 87.4482 208.341 87.3911C207.967 87.3245 207.502 87.2912 206.945 87.2912H205.39V90.3736Z" stroke="#CCA55D" stroke-width="0.8" mask="url(#path-7-outside-1_1889_252)"/>
</svg>
