<svg width="257" height="161" viewBox="0 0 257 161" fill="none" xmlns="http://www.w3.org/2000/svg">
<g clip-path="url(#clip0_2026_146)">
<path d="M128.879 3.4653C147.333 -0.983832 166.833 -1.16543 185.333 3.04157C186 3.1929 186.788 3.4653 186.955 4.13115C187.076 4.58515 186.833 5.03914 186.621 5.46286C183.061 12.0155 179.5 18.5681 175.939 25.1207C175.652 25.6504 175.333 26.1952 174.803 26.4676C174.243 26.7551 173.561 26.6492 172.939 26.5433C150.333 22.6087 126.182 24.1674 105.773 34.6849C97.8486 38.7708 90.5304 44.2036 84.9546 51.1648C79.3789 58.126 75.6062 66.646 75.0304 75.5291C74.091 89.6634 81.8334 104.025 94.1668 111.031C94.4698 112.015 92.788 112.197 91.8637 111.773C79.1819 105.901 68.8334 94.5968 65.4092 80.9467C61.8031 66.54 65.4092 50.7713 73.5152 38.5135C83.3789 23.6377 99.1819 13.4531 115.97 7.3545C120.197 5.82606 124.515 4.52461 128.879 3.4653Z" fill="#FF7700"/>
<path d="M145.849 40.1783C152.5 40.2539 159.167 40.9349 165.727 42.1002C166.091 42.1607 166.47 42.2515 166.682 42.539C166.985 42.9628 166.743 43.5681 166.5 44.0221C163.394 49.818 160.273 55.5989 157.167 61.3949C156.834 62.0002 156.47 62.6509 155.834 62.9384C155.243 63.1957 154.576 63.0898 153.94 62.9838C141.243 60.7441 127.924 60.6533 115.697 64.7241C110.152 66.5552 104.834 69.2792 100.546 73.2138C96.2578 77.1484 93.0153 82.3996 92.1063 88.1653C90.8335 96.1556 94.3638 104.721 100.909 109.488C101.364 109.821 101.849 110.154 102.061 110.668C102.273 111.183 102.03 111.924 101.485 112C101.197 112.045 100.924 111.909 100.667 111.773C87.576 104.736 81.0002 89.951 84.5153 75.5746C86.0457 69.2792 89.2275 63.3773 93.5911 58.6104C102.485 48.8949 115.409 43.6286 128.409 41.4797C134.167 40.5112 140 40.1026 145.849 40.1783Z" fill="#FF7700"/>
<path d="M105.576 100.438C105.515 103.51 106.333 106.325 107.985 108.913C108.258 109.336 108.409 109.881 108.455 110.381C108.53 111.031 108.03 111.334 107.424 111.077C106.803 110.804 106.364 110.305 105.894 109.806C103.939 107.732 102.53 105.341 101.364 102.784C100.394 100.635 99.8485 98.3498 99.7879 96.0647C99.7273 93.8098 100.061 91.5399 100.955 89.391C102.167 86.44 104.091 84.0339 106.5 82.0514C108.515 80.4019 110.742 79.0248 113.167 78.026C115.258 77.1634 117.409 76.4371 119.576 75.7561C122.424 74.8632 125.394 74.5908 128.364 74.2882C130.939 74.0309 133.515 73.8796 136.076 73.9704C138.758 74.0612 141.439 74.273 144.106 74.5606C145.758 74.7421 147.394 75.1356 149.046 75.4534C149.333 75.5139 149.621 75.635 149.879 75.7712C150.53 76.1193 150.682 76.4673 150.379 77.1483C150.03 77.9352 149.636 78.6919 149.227 79.4485C148.106 81.5218 146.955 83.5647 145.864 85.6531C145.045 87.2118 144.061 87.0756 142.985 86.894C141.303 86.6065 139.606 86.3795 137.924 86.0617C134.182 85.3504 130.394 85.6682 126.621 85.7288C125 85.759 123.394 86.1676 121.788 86.4249C120.803 86.5914 119.803 86.7578 118.833 87.0302C117.364 87.4539 115.879 87.8323 114.5 88.4679C112.758 89.2699 110.97 90.0871 109.53 91.4339C107.924 92.917 106.47 94.4908 105.985 96.7305C105.864 97.2753 105.621 97.805 105.561 98.3498C105.515 99.0156 105.576 99.7269 105.576 100.438Z" fill="#FF7700"/>
</g>
<path d="M2.56228 152.592V130.982H6.69898L19.4487 146.541H17.442V130.982H22.3814V152.592H18.2756L5.49502 137.033H7.50162V152.592H2.56228ZM24.654 152.592L34.2857 130.982H39.2251L48.8876 152.592H43.6396L35.7367 133.514H37.7124L29.7786 152.592H24.654ZM29.4699 147.961L30.7973 144.164H41.9108L43.2691 147.961H29.4699ZM58.2299 152.962C56.5012 152.962 54.8444 152.736 53.2597 152.283C51.675 151.81 50.399 151.203 49.4317 150.462L51.1296 146.695C52.0558 147.354 53.1465 147.899 54.402 148.332C55.678 148.743 56.9642 148.949 58.2608 148.949C59.2487 148.949 60.041 148.856 60.6379 148.671C61.2553 148.465 61.7081 148.188 61.9962 147.838C62.2843 147.488 62.4284 147.086 62.4284 146.634C62.4284 146.057 62.202 145.605 61.7492 145.275C61.2965 144.926 60.6996 144.648 59.9587 144.442C59.2178 144.216 58.3946 144.01 57.489 143.824C56.6041 143.619 55.7088 143.372 54.8033 143.084C53.9183 142.795 53.1054 142.425 52.3645 141.972C51.6236 141.519 51.0164 140.923 50.5431 140.182C50.0903 139.441 49.8639 138.494 49.8639 137.342C49.8639 136.107 50.1932 134.985 50.8518 133.977C51.531 132.948 52.5394 132.135 53.8772 131.538C55.2355 130.92 56.9334 130.612 58.9708 130.612C60.3292 130.612 61.6669 130.776 62.9841 131.106C64.3012 131.414 65.464 131.888 66.4725 132.526L64.9289 136.323C63.9205 135.747 62.912 135.325 61.9036 135.057C60.8951 134.769 59.9073 134.625 58.94 134.625C57.9727 134.625 57.1803 134.738 56.5629 134.965C55.9455 135.191 55.503 135.489 55.2355 135.86C54.9679 136.21 54.8341 136.621 54.8341 137.095C54.8341 137.65 55.0605 138.103 55.5133 138.453C55.9661 138.782 56.5629 139.05 57.3038 139.256C58.0447 139.461 58.8577 139.667 59.7426 139.873C60.6482 140.079 61.5434 140.315 62.4284 140.583C63.3339 140.851 64.1572 141.211 64.8981 141.664C65.639 142.116 66.2358 142.713 66.6886 143.454C67.1619 144.195 67.3986 145.131 67.3986 146.263C67.3986 147.478 67.059 148.589 66.3799 149.597C65.7007 150.606 64.682 151.419 63.3236 152.036C61.9859 152.654 60.288 152.962 58.2299 152.962ZM67.9757 152.592L77.6074 130.982H82.5468L92.2094 152.592H86.9613L79.0584 133.514H81.0341L73.1003 152.592H67.9757ZM72.7916 147.961L74.119 144.164H85.2326L86.5909 147.961H72.7916ZM99.082 140.707H109.455V144.72H99.082V140.707ZM99.4524 152.592H94.4514V130.982H110.782V134.995H99.4524V152.592ZM120.07 152.592L129.702 130.982H134.641L144.304 152.592H139.056L131.153 133.514H133.129L125.195 152.592H120.07ZM124.886 147.961L126.214 144.164H137.327L138.685 147.961H124.886ZM156.679 152.962C154.971 152.962 153.396 152.695 151.956 152.16C150.536 151.604 149.29 150.822 148.22 149.813C147.171 148.805 146.347 147.622 145.751 146.263C145.174 144.905 144.886 143.413 144.886 141.787C144.886 140.161 145.174 138.669 145.751 137.311C146.347 135.952 147.181 134.769 148.251 133.761C149.321 132.752 150.577 131.98 152.017 131.445C153.458 130.89 155.043 130.612 156.771 130.612C158.685 130.612 160.404 130.931 161.927 131.569C163.47 132.207 164.767 133.133 165.817 134.347L162.606 137.311C161.824 136.487 160.97 135.88 160.044 135.489C159.118 135.078 158.109 134.872 157.018 134.872C155.969 134.872 155.012 135.037 154.147 135.366C153.283 135.695 152.532 136.168 151.894 136.786C151.276 137.403 150.793 138.134 150.443 138.978C150.114 139.822 149.949 140.758 149.949 141.787C149.949 142.795 150.114 143.722 150.443 144.565C150.793 145.409 151.276 146.15 151.894 146.788C152.532 147.405 153.273 147.879 154.117 148.208C154.981 148.537 155.928 148.702 156.957 148.702C157.945 148.702 158.902 148.548 159.828 148.239C160.774 147.91 161.69 147.364 162.575 146.603L165.415 150.215C164.242 151.1 162.874 151.779 161.309 152.252C159.766 152.726 158.222 152.962 156.679 152.962ZM160.846 149.566V141.447H165.415V150.215L160.846 149.566ZM174.661 139.688H185.064V143.578H174.661V139.688ZM175.031 148.579H186.793V152.592H170.061V130.982H186.392V134.995H175.031V148.579ZM190.772 152.592V130.982H194.909L207.658 146.541H205.652V130.982H210.591V152.592H206.485L193.705 137.033H195.711V152.592H190.772ZM226.046 152.962C224.379 152.962 222.825 152.695 221.384 152.16C219.964 151.604 218.729 150.822 217.68 149.813C216.63 148.805 215.807 147.622 215.21 146.263C214.634 144.905 214.346 143.413 214.346 141.787C214.346 140.161 214.634 138.669 215.21 137.311C215.807 135.952 216.63 134.769 217.68 133.761C218.75 132.752 219.995 131.98 221.415 131.445C222.835 130.89 224.389 130.612 226.077 130.612C227.949 130.612 229.637 130.941 231.139 131.6C232.662 132.238 233.938 133.184 234.967 134.44L231.757 137.403C231.016 136.56 230.193 135.932 229.287 135.52C228.382 135.088 227.394 134.872 226.324 134.872C225.315 134.872 224.389 135.037 223.545 135.366C222.701 135.695 221.971 136.168 221.353 136.786C220.736 137.403 220.252 138.134 219.902 138.978C219.573 139.822 219.408 140.758 219.408 141.787C219.408 142.816 219.573 143.752 219.902 144.596C220.252 145.44 220.736 146.171 221.353 146.788C221.971 147.405 222.701 147.879 223.545 148.208C224.389 148.537 225.315 148.702 226.324 148.702C227.394 148.702 228.382 148.496 229.287 148.085C230.193 147.652 231.016 147.004 231.757 146.14L234.967 149.103C233.938 150.359 232.662 151.316 231.139 151.974C229.637 152.633 227.939 152.962 226.046 152.962ZM243.535 152.592V143.763L244.677 146.788L235.169 130.982H240.479L247.765 143.114H244.708L252.025 130.982H256.933L247.425 146.788L248.536 143.763V152.592H243.535Z" fill="white"/>
<defs>
<clipPath id="clip0_2026_146">
<rect width="123" height="112" fill="white" transform="translate(64)"/>
</clipPath>
</defs>
</svg>
