<svg width="240" height="54" viewBox="0 0 240 54" fill="none" xmlns="http://www.w3.org/2000/svg">
<path d="M198.13 0.732422H221.111C224.45 0.732422 227.374 1.05593 229.885 1.70293C232.162 2.29818 234.181 3.51455 235.941 5.35205C237.286 6.7237 238.27 8.44474 238.891 10.5152C239.538 12.5856 239.862 15.096 239.862 18.0463V53.7223H225.42V18.7451C225.42 16.9335 225.097 15.6136 224.45 14.7854C223.648 13.802 222.017 13.3102 219.558 13.3102C218.801 13.3102 217.848 13.3102 216.891 13.3102C214.505 13.3102 212.571 15.2445 212.571 17.6305V53.7223H198.13V0.732422Z" fill="white"/>
<path d="M191.723 21.1131V33.691H174.215C172.157 33.691 170.489 35.3595 170.489 37.4177C170.489 39.4759 172.157 41.1445 174.215 41.1445H191.723V53.7223H156.047V21.1131H191.723ZM191.723 0.732422V13.3102H156.047V0.732422H191.723Z" fill="white"/>
<path d="M91.9163 0.732422H129.494C133.868 0.732422 137.323 1.04298 139.859 1.66411C142.318 2.25936 144.479 3.70865 146.342 6.012C147.533 7.48717 148.387 9.24703 148.905 11.2916C149.422 13.3102 149.681 15.9112 149.681 19.0945V53.7223H135.24V19.6768C135.24 18.2275 135.136 17.1405 134.929 16.4159C134.748 15.6912 134.399 15.083 133.881 14.5913C133.389 14.1255 132.755 13.802 131.979 13.6208C131.228 13.4138 130.232 13.3102 128.99 13.3102H110.986C108.43 13.3102 106.357 15.3826 106.357 17.9391V53.7223H91.9163V0.732422ZM120.818 29.8065C124.516 29.8065 127.515 32.8046 127.515 36.503V53.7223H114.122V36.503C114.122 32.8046 117.12 29.8065 120.818 29.8065Z" fill="#33F427"/>
<path d="M85.5503 0.732422V53.7223H60.7052C57.522 53.7223 54.8175 53.36 52.5918 52.6353C51.1166 52.1436 49.732 51.3154 48.438 50.1508C47.1699 48.9603 46.1605 47.5628 45.41 45.9582C44.323 43.7325 43.7795 40.4457 43.7795 36.0978V0.732422H58.2207V34.4285C58.2207 36.1366 58.3243 37.3918 58.5313 38.1941C58.7383 38.9705 59.1265 39.6046 59.6959 40.0963C60.1359 40.4845 60.7182 40.7563 61.4428 40.9116C62.1675 41.0668 63.1509 41.1445 64.3932 41.1445H66.7888C69.1749 41.1445 71.1091 39.2102 71.1091 36.8242V0.732422H85.5503Z" fill="white"/>
<path d="M0.37793 0.732422H17.8859C21.0433 0.732422 23.6443 0.823002 25.6888 1.00416C28.8204 1.26297 31.486 2.25936 33.6858 3.99334C35.161 5.18383 36.3127 6.73665 37.1409 8.65179C37.969 10.541 38.3831 12.5856 38.3831 14.7854C38.3831 17.477 37.8138 19.8321 36.675 21.8507C36.0798 22.9118 35.3551 23.8306 34.5011 24.607C33.6729 25.3575 32.4954 26.1339 30.9684 26.9362C32.1848 27.4279 33.1553 27.9067 33.8799 28.3726C34.6046 28.8384 35.3034 29.4595 35.9762 30.2359C37.9949 32.5134 39.0042 35.4379 39.0042 39.0093C39.0042 40.9504 38.6549 42.8396 37.9561 44.6771C37.2573 46.5146 36.2868 48.0674 35.0446 49.3356C33.9317 50.4743 32.5859 51.406 31.0072 52.1306C29.4544 52.8553 27.811 53.2953 26.077 53.4505C24.3172 53.6317 22.2209 53.7223 19.7881 53.7223H0.37793V41.1445H17.653C19.5682 41.1445 20.888 40.7692 21.6127 40.0187C22.3373 39.2423 22.6997 38.2847 22.6997 37.146C22.6997 36.059 22.3632 35.1661 21.6903 34.4674C20.9916 33.7686 19.6329 33.4192 17.6142 33.4192H0.37793V20.8414H17.653C18.947 20.8414 19.9693 20.7379 20.7198 20.5308C21.4962 20.3238 22.0915 19.9744 22.5056 19.4827C23.1008 18.7839 23.3984 17.9299 23.3984 16.9205C23.3984 15.7042 22.9844 14.7984 22.1562 14.2031C21.3539 13.6079 20.1246 13.3102 18.4682 13.3102H0.37793V0.732422Z" fill="white"/>
<circle cx="120.322" cy="21.9384" r="5.24603" fill="#33F427"/>
</svg>
